<svg width="96" height="68" viewBox="0 0 96 68" fill="none" xmlns="http://www.w3.org/2000/svg">
<g filter="url(#filter0_d_284_3717)">
<path fill-rule="evenodd" clip-rule="evenodd" d="M19.2891 53.2783C43.5483 60.9233 60.7382 15.8228 82.313 27.7481C74.7582 25.4101 64.8171 31.4889 52.4909 45.9841C39.3031 59.4503 28.2355 61.8816 19.2891 53.2783Z" fill="white"/>
<path fill-rule="evenodd" clip-rule="evenodd" d="M84.314 33.5936C71.4181 19.7838 59.3291 53.8398 46.5449 58.0804C59.3584 69.0438 69.3378 29.2773 84.314 33.5936Z" fill="white"/>
<path fill-rule="evenodd" clip-rule="evenodd" d="M92 28.93C67.9903 -14.7085 29.9203 46.723 19.1141 26.6822C10.2892 10.3165 32.4548 0.897895 39.408 16.6804C27.557 -18.5009 -7.5165 8.68038 7.81099 36.5856C17.417 54.0746 33.7194 44.8827 47.1523 33.2318C60.4324 21.7144 76.3834 11.7881 92 28.93Z" fill="#2F6690"/>
</g>
<defs>
<filter id="filter0_d_284_3717" x="0" y="0" width="96" height="68" filterUnits="userSpaceOnUse" color-interpolation-filters="sRGB">
<feFlood flood-opacity="0" result="BackgroundImageFix"/>
<feColorMatrix in="SourceAlpha" type="matrix" values="0 0 0 0 0 0 0 0 0 0 0 0 0 0 0 0 0 0 127 0" result="hardAlpha"/>
<feOffset dy="4"/>
<feGaussianBlur stdDeviation="2"/>
<feComposite in2="hardAlpha" operator="out"/>
<feColorMatrix type="matrix" values="0 0 0 0 0 0 0 0 0 0 0 0 0 0 0 0 0 0 0.25 0"/>
<feBlend mode="normal" in2="BackgroundImageFix" result="effect1_dropShadow_284_3717"/>
<feBlend mode="normal" in="SourceGraphic" in2="effect1_dropShadow_284_3717" result="shape"/>
</filter>
</defs>
</svg>
